# This file uses centimeters as units for non-parametric coordinates.

mtllib Leaf_Obj.mtl
g default
v -0.500000 0.005860 0.689438
v 0.500000 0.005860 0.689438
v -0.500000 0.199950 0.662825
v 0.500000 0.199950 0.662825
v -0.500000 0.254367 -0.660234
v 0.500000 0.254367 -0.660234
v -0.500000 0.060450 -0.688077
v 0.500000 0.060450 -0.688077
v -0.638889 0.218862 0.000000
v 0.638889 0.218862 0.000000
v 0.638889 0.000000 0.000000
v -0.638889 0.000000 0.000000
v 0.000000 0.033520 0.958019
v 0.000000 -0.032231 0.000000
v 0.000000 0.114589 -1.065137
v 0.000000 0.308506 -1.037293
v 0.000000 0.195906 0.000000
v 0.000000 0.251697 0.931406
v 0.184866 -0.032231 0.000000
v 0.096987 0.042634 0.957631
v 0.096987 0.236724 0.931019
v 0.184866 0.195906 0.000000
v 0.144678 0.292841 -0.928189
v 0.144678 0.098923 -0.956033
v -0.098795 0.042446 0.956267
v -0.187176 -0.032231 0.000000
v -0.146486 0.098728 -0.954669
v -0.146486 0.292645 -0.926826
v -0.187176 0.195906 0.000000
v -0.098795 0.236537 0.929654
v 0.000000 0.271874 1.497096
v 0.000000 0.076855 1.478477
v 0.144678 0.087330 1.368753
v 0.144678 0.282350 1.387372
v -0.146486 0.282480 1.386001
v -0.146486 0.087461 1.367382
v 0.000000 0.283107 1.164172
v -0.122640 0.267947 1.158731
v -0.122640 0.073856 1.185344
v 0.000000 0.064930 1.190784
v 0.120832 0.074044 1.186709
v 0.120832 0.268134 1.160096
vt 0.375000 0.000000
vt 0.625000 0.000000
vt 0.375000 0.250000
vt 0.625000 0.250000
vt 0.375000 0.500000
vt 0.625000 0.500000
vt 0.375000 0.750000
vt 0.625000 0.750000
vt 0.375000 1.000000
vt 0.625000 1.000000
vt 0.875000 0.000000
vt 0.875000 0.250000
vt 0.125000 0.000000
vt 0.125000 0.250000
vt 0.250000 0.250000
vt 0.375000 0.375000
vt 0.625000 0.375000
vt 0.750000 0.250000
vt 0.625000 0.875000
vt 0.750000 0.000000
vt 0.250000 0.000000
vt 0.375000 0.875000
vt 0.500000 0.000000
vt 0.500000 1.000000
vt 0.500000 0.875000
vt 0.500000 0.750000
vt 0.500000 0.500000
vt 0.500000 0.375000
vt 0.500000 0.250000
vt 0.536169 0.875000
vt 0.536169 0.000000
vt 0.536169 1.000000
vt 0.536169 0.250000
vt 0.536169 0.375000
vt 0.536169 0.500000
vt 0.536169 0.750000
vt 0.463379 0.000000
vt 0.463379 1.000000
vt 0.463379 0.875000
vt 0.463379 0.750000
vt 0.463379 0.500000
vt 0.463379 0.375000
vt 0.463379 0.250000
vt 0.500000 0.000000
vt 0.536169 0.000000
vt 0.536169 0.250000
vt 0.500000 0.250000
vt 0.463379 0.250000
vt 0.463379 0.000000
vt 0.500000 0.250000
vt 0.463379 0.250000
vt 0.463379 0.000000
vt 0.500000 0.000000
vt 0.536169 0.000000
vt 0.536169 0.250000
vn -0.004732 -0.095039 0.995462
vn -0.004731 -0.095039 0.995462
vn 0.606017 -0.075600 0.791851
vn 0.606017 -0.075600 0.791851
vn -0.000076 0.994393 0.105744
vn -0.000126 0.999340 0.036332
vn 0.010767 0.999333 0.034901
vn 0.003590 0.995297 0.096805
vn -0.004730 0.142124 -0.989838
vn -0.004730 0.142124 -0.989838
vn 0.606017 0.113054 -0.787377
vn 0.606017 0.113054 -0.787377
vn 0.000081 -0.999118 -0.041989
vn 0.000012 -0.990680 -0.136207
vn 0.011990 -0.991552 -0.129153
vn 0.018379 -0.999239 -0.034402
vn 0.999777 0.013559 -0.016157
vn 0.999758 0.013511 0.017377
vn 0.979531 0.013547 -0.200838
vn 0.979531 0.013547 -0.200838
vn -0.979531 0.013547 -0.200838
vn -0.999758 0.013511 0.017377
vn -0.999777 0.013559 -0.016157
vn -0.979531 0.013547 -0.200838
vn 0.000025 0.998785 -0.049278
vn 0.030267 0.999137 -0.028427
vn 0.979440 0.012974 0.201319
vn 0.979440 0.012974 0.201319
vn 0.000313 -0.997210 0.074647
vn 0.019747 -0.997962 0.060685
vn -0.979440 0.012974 0.201319
vn -0.979440 0.012974 0.201319
vn -0.019678 -0.997956 0.060806
vn -0.018380 -0.999238 -0.034439
vn -0.011922 -0.991543 -0.129232
vn -0.606017 0.113054 -0.787377
vn -0.606017 0.113054 -0.787377
vn -0.003636 0.995290 0.096873
vn -0.010749 0.999332 0.034914
vn -0.030322 0.999131 -0.028595
vn -0.606018 -0.075600 0.791851
vn -0.606018 -0.075600 0.791851
vn 0.021187 -0.999186 -0.034345
vn 0.010475 -0.998675 0.050388
vn 0.557589 0.112766 0.822422
vn 0.557589 0.112766 0.822422
vn 0.557589 0.112766 0.822422
vn 0.557589 0.112766 0.822422
vn 0.012371 0.999852 -0.011982
vn 0.001925 0.999363 0.035627
vn -0.008726 0.996422 0.084064
vn 0.606017 0.113054 -0.787377
vn 0.606017 0.113054 -0.787377
vn 0.031781 -0.992372 -0.119112
vn -0.021378 -0.999181 -0.034368
vn -0.010650 -0.998675 0.050344
vn -0.031987 -0.992364 -0.119124
vn -0.606017 0.113054 -0.787377
vn -0.606017 0.113054 -0.787377
vn -0.001804 0.999363 0.035656
vn 0.008860 0.996424 0.084031
vn -0.012260 0.999854 -0.011887
vn -0.557356 0.112788 0.822577
vn -0.557356 0.112788 0.822577
vn -0.557356 0.112788 0.822577
vn -0.557356 0.112788 0.822577
vn 0.090254 -0.992246 0.085458
vn 0.090747 -0.992582 0.080902
vn 0.094187 -0.994368 0.048587
vn 0.094187 -0.994368 0.048587
vn 0.994211 -0.009460 -0.107032
vn 0.993969 -0.007489 -0.109409
vn 0.993296 -0.002374 -0.115571
vn 0.993296 -0.002374 -0.115571
vn 0.063787 0.996017 -0.062308
vn 0.058985 0.996640 -0.056824
vn 0.014393 0.999879 -0.005937
vn 0.014393 0.999879 -0.005937
vn -0.993968 -0.007482 -0.109418
vn -0.994212 -0.009471 -0.107020
vn -0.993296 -0.002374 -0.115571
vn -0.993296 -0.002374 -0.115571
vn -0.089725 -0.992608 0.081722
vn -0.089258 -0.992319 0.085653
vn -0.093517 -0.994396 0.049297
vn -0.093517 -0.994396 0.049297
vn -0.057712 0.996714 -0.056837
vn -0.063136 0.996008 -0.063102
vn -0.014107 0.999879 -0.006493
vn -0.014107 0.999879 -0.006493
vn -0.129849 0.981569 -0.140217
vn -0.129849 0.981569 -0.140217
vn -0.994724 -0.013935 -0.101632
vn -0.994724 -0.013935 -0.101632
vn -0.083873 -0.987953 0.130051
vn -0.083873 -0.987953 0.130051
vn 0.085322 -0.987841 0.129961
vn 0.085322 -0.987841 0.129961
vn 0.994724 -0.013935 -0.101632
vn 0.994724 -0.013935 -0.101632
vn 0.132032 0.981268 -0.140289
vn 0.132032 0.981268 -0.140289
s 1
g pCube1
usemtl initialShadingGroup
f 31/47/1 32/44/2 33/45/3 34/46/4
s 2
f 16/27/5 17/28/6 22/34/7 23/35/8
s 3
f 15/26/9 16/27/10 23/35/11 24/36/12
s 4
f 14/25/13 15/26/14 24/36/15 19/30/16
s 5
f 10/18/17 11/20/18 8/11/19 6/12/20
s 6
f 7/13/21 12/21/22 9/15/23 5/14/24
s 2
f 17/28/6 18/29/25 21/33/26 22/34/7
s 5
f 2/2/27 11/20/18 10/18/17 4/4/28
s 4
f 13/24/29 14/25/13 19/30/16 20/32/30
s 6
f 9/15/23 12/21/22 1/1/31 3/3/32
s 4
f 25/38/33 26/39/34 14/25/13 13/24/29
f 26/39/34 27/40/35 15/26/14 14/25/13
s 3
f 27/40/36 28/41/37 16/27/10 15/26/9
s 2
f 28/41/38 29/42/39 17/28/6 16/27/5
f 29/42/39 30/43/40 18/29/25 17/28/6
s 1
f 35/48/41 36/49/42 32/44/2 31/47/1
s 4
f 20/32/30 19/30/16 11/19/43 2/10/44
s off
f 21/33/45 20/31/46 2/2/47 4/4/48
s 2
f 22/34/7 21/33/26 4/4/49 10/17/50
f 23/35/8 22/34/7 10/17/50 6/6/51
s 3
f 24/36/12 23/35/11 6/6/52 8/8/53
s 4
f 19/30/16 24/36/15 8/8/54 11/19/43
f 12/22/55 26/39/34 25/38/33 1/9/56
f 7/7/57 27/40/35 26/39/34 12/22/55
s 3
f 5/5/58 28/41/37 27/40/36 7/7/59
s 2
f 9/16/60 29/42/39 28/41/38 5/5/61
f 3/3/62 30/43/40 29/42/39 9/16/60
s off
f 1/1/63 25/37/64 30/43/65 3/3/66
s 7
f 40/53/67 41/54/68 33/45/69 32/44/70
s 8
f 41/54/71 42/55/72 34/46/73 33/45/74
s 9
f 42/55/75 37/50/76 31/47/77 34/46/78
s 10
f 38/51/79 39/52/80 36/49/81 35/48/82
s 11
f 39/52/83 40/53/84 32/44/85 36/49/86
s 12
f 37/50/87 38/51/88 35/48/89 31/47/90
f 18/29/91 30/43/92 38/51/88 37/50/87
s 10
f 30/43/93 25/37/94 39/52/80 38/51/79
s 11
f 25/37/95 13/23/96 40/53/84 39/52/83
s 7
f 13/23/97 20/31/98 41/54/68 40/53/67
s 8
f 20/31/99 21/33/100 42/55/72 41/54/71
s 9
f 21/33/101 18/29/102 37/50/76 42/55/75
